<?xml version="1.0" encoding="utf-8"?>
<!-- Generator: Adobe Illustrator 24.1.2, SVG Export Plug-In . SVG Version: 6.00 Build 0)  -->
<svg version="1.1" id="Camada_1" xmlns="http://www.w3.org/2000/svg" xmlns:xlink="http://www.w3.org/1999/xlink" x="0px" y="0px"
	 viewBox="0 0 305.35 78.07" style="enable-background:new 0 0 305.35 78.07;" xml:space="preserve">
<style type="text/css">
	.st0{fill:#FFFFFF;}
	.st1{fill:url(#SVGID_1_);}
	.st2{fill:url(#SVGID_2_);}
	.st3{clip-path:url(#SVGID_4_);fill:none;stroke:#FFFFFF;stroke-miterlimit:10;}
	.st4{clip-path:url(#SVGID_6_);fill:none;stroke:#FFFFFF;stroke-miterlimit:10;}
</style>
<g>
	<path class="st0" d="M95.07,50.51v1.62h-4.15v13.61h-1.99V52.13h-4.17v-1.62H95.07z"/>
	<path class="st0" d="M98.61,56.49c0.5-0.92,1.18-1.64,2.04-2.15s1.83-0.76,2.9-0.76c1.05,0,1.96,0.23,2.73,0.68
		c0.77,0.45,1.35,1.02,1.73,1.71v-2.19h2.01v11.97H108v-2.23c-0.39,0.7-0.98,1.28-1.76,1.74c-0.78,0.46-1.69,0.69-2.72,0.69
		c-1.06,0-2.02-0.26-2.88-0.79c-0.86-0.52-1.54-1.26-2.03-2.21c-0.5-0.95-0.74-2.02-0.74-3.23C97.86,58.49,98.11,57.41,98.61,56.49z
		 M107.46,57.37c-0.36-0.67-0.86-1.18-1.48-1.54c-0.62-0.36-1.3-0.54-2.04-0.54c-0.74,0-1.42,0.17-2.03,0.52s-1.1,0.86-1.46,1.53
		c-0.36,0.67-0.55,1.46-0.55,2.36c0,0.92,0.18,1.72,0.55,2.39c0.36,0.68,0.85,1.2,1.46,1.55c0.61,0.36,1.29,0.54,2.03,0.54
		c0.74,0,1.42-0.18,2.04-0.54c0.62-0.36,1.11-0.87,1.48-1.55c0.36-0.68,0.55-1.47,0.55-2.37S107.82,58.04,107.46,57.37z"/>
	<path class="st0" d="M116.46,49.57v16.17h-1.99V49.57H116.46z"/>
	<path class="st0" d="M131.8,60.5h-9.57c0.07,1.18,0.48,2.1,1.21,2.76c0.74,0.66,1.63,0.99,2.68,0.99c0.86,0,1.58-0.2,2.15-0.6
		c0.58-0.4,0.98-0.94,1.21-1.61h2.14c-0.32,1.15-0.96,2.09-1.92,2.81c-0.96,0.72-2.16,1.08-3.58,1.08c-1.14,0-2.15-0.25-3.05-0.76
		c-0.9-0.51-1.6-1.23-2.11-2.17c-0.51-0.94-0.77-2.03-0.77-3.27s0.25-2.32,0.74-3.26c0.5-0.93,1.19-1.65,2.09-2.15
		c0.9-0.5,1.93-0.75,3.09-0.75c1.14,0,2.14,0.25,3.02,0.74c0.87,0.5,1.55,1.18,2.02,2.04c0.47,0.87,0.71,1.85,0.71,2.94
		C131.86,59.67,131.84,60.07,131.8,60.5z M129.31,56.92c-0.34-0.55-0.79-0.96-1.37-1.25c-0.58-0.28-1.21-0.43-1.91-0.43
		c-1.01,0-1.86,0.32-2.57,0.96c-0.71,0.64-1.11,1.53-1.21,2.67h7.56C129.81,58.12,129.64,57.47,129.31,56.92z"/>
	<path class="st0" d="M144.95,54.87c0.9,0.88,1.35,2.15,1.35,3.81v7.06h-1.97v-6.77c0-1.19-0.3-2.11-0.9-2.74
		c-0.6-0.63-1.41-0.95-2.45-0.95c-1.05,0-1.88,0.33-2.5,0.98s-0.93,1.61-0.93,2.86v6.62h-1.99V53.77h1.99v1.7
		c0.39-0.61,0.93-1.08,1.61-1.42c0.68-0.33,1.42-0.5,2.24-0.5C142.87,53.55,144.05,53.99,144.95,54.87z"/>
	<path class="st0" d="M153.08,55.41v7.06c0,0.58,0.12,0.99,0.37,1.23c0.25,0.24,0.68,0.36,1.29,0.36h1.46v1.68h-1.79
		c-1.11,0-1.94-0.25-2.49-0.76c-0.55-0.51-0.83-1.35-0.83-2.51v-7.06h-1.55v-1.64h1.55v-3.02h1.99v3.02h3.12v1.64H153.08z"/>
	<path class="st0" d="M178.36,50.51v15.23h-1.99v-6.91h-7.76v6.91h-1.99V50.51h1.99v6.69h7.76v-6.69H178.36z"/>
	<path class="st0" d="M193.46,53.77v11.97h-1.99v-1.77c-0.38,0.61-0.91,1.09-1.58,1.43s-1.42,0.51-2.24,0.51
		c-0.93,0-1.77-0.19-2.51-0.58c-0.74-0.39-1.33-0.96-1.76-1.74c-0.43-0.77-0.64-1.71-0.64-2.82v-7.01h1.97v6.75
		c0,1.18,0.3,2.09,0.9,2.72s1.41,0.95,2.45,0.95c1.06,0,1.9-0.33,2.51-0.98c0.61-0.66,0.92-1.61,0.92-2.86v-6.58H193.46z"/>
	<path class="st0" d="M207.29,54.87c0.9,0.88,1.35,2.15,1.35,3.81v7.06h-1.97v-6.77c0-1.19-0.3-2.11-0.9-2.74
		c-0.6-0.63-1.41-0.95-2.45-0.95c-1.05,0-1.88,0.33-2.5,0.98s-0.93,1.61-0.93,2.86v6.62h-1.99V53.77h1.99v1.7
		c0.39-0.61,0.93-1.08,1.61-1.42c0.68-0.33,1.42-0.5,2.24-0.5C205.21,53.55,206.39,53.99,207.29,54.87z"/>
	<path class="st0" d="M215.42,55.41v7.06c0,0.58,0.12,0.99,0.37,1.23c0.25,0.24,0.68,0.36,1.29,0.36h1.46v1.68h-1.79
		c-1.11,0-1.94-0.25-2.49-0.76c-0.55-0.51-0.83-1.35-0.83-2.51v-7.06h-1.55v-1.64h1.55v-3.02h1.99v3.02h3.12v1.64H215.42z"/>
	<path class="st0" d="M232.9,60.5h-9.57c0.07,1.18,0.48,2.1,1.21,2.76c0.74,0.66,1.63,0.99,2.68,0.99c0.86,0,1.58-0.2,2.15-0.6
		c0.58-0.4,0.98-0.94,1.21-1.61h2.14c-0.32,1.15-0.96,2.09-1.92,2.81c-0.96,0.72-2.16,1.08-3.58,1.08c-1.14,0-2.15-0.25-3.05-0.76
		c-0.9-0.51-1.6-1.23-2.11-2.17s-0.76-2.03-0.76-3.27s0.25-2.32,0.74-3.26s1.19-1.65,2.09-2.15c0.9-0.5,1.93-0.75,3.09-0.75
		c1.14,0,2.14,0.25,3.02,0.74s1.55,1.18,2.02,2.04c0.47,0.87,0.71,1.85,0.71,2.94C232.97,59.67,232.95,60.07,232.9,60.5z
		 M230.41,56.92c-0.34-0.55-0.79-0.96-1.37-1.25s-1.21-0.43-1.91-0.43c-1,0-1.86,0.32-2.57,0.96c-0.71,0.64-1.11,1.53-1.21,2.67
		h7.56C230.91,58.12,230.75,57.47,230.41,56.92z"/>
	<path class="st0" d="M240.17,54.12c0.65-0.38,1.44-0.57,2.37-0.57v2.05h-0.52c-2.23,0-3.34,1.21-3.34,3.63v6.51h-1.99V53.77h1.99
		v1.95C239.02,55.03,239.52,54.5,240.17,54.12z"/>
	<path class="st0" d="M247.7,65.47c-0.73-0.31-1.3-0.75-1.73-1.31c-0.42-0.56-0.66-1.21-0.7-1.93h2.05c0.06,0.6,0.34,1.08,0.84,1.46
		c0.5,0.38,1.16,0.57,1.98,0.57c0.76,0,1.36-0.17,1.79-0.5c0.44-0.33,0.66-0.76,0.66-1.27c0-0.52-0.23-0.91-0.7-1.17
		c-0.47-0.25-1.19-0.51-2.16-0.75c-0.89-0.23-1.61-0.47-2.17-0.71c-0.56-0.24-1.04-0.6-1.44-1.07c-0.4-0.47-0.6-1.1-0.6-1.87
		c0-0.61,0.18-1.17,0.55-1.68c0.36-0.51,0.88-0.91,1.55-1.21c0.67-0.3,1.43-0.45,2.29-0.45c1.33,0,2.4,0.33,3.21,1
		c0.82,0.67,1.25,1.59,1.31,2.75h-1.99c-0.04-0.63-0.29-1.13-0.75-1.51c-0.46-0.38-1.07-0.57-1.85-0.57c-0.71,0-1.28,0.15-1.7,0.46
		c-0.42,0.31-0.63,0.71-0.63,1.2c0,0.39,0.13,0.72,0.38,0.97c0.25,0.25,0.58,0.46,0.96,0.61c0.39,0.15,0.92,0.33,1.61,0.51
		c0.86,0.23,1.56,0.46,2.1,0.69c0.54,0.23,1,0.56,1.39,1.02c0.39,0.45,0.59,1.04,0.6,1.77c0,0.66-0.18,1.25-0.55,1.77
		c-0.37,0.52-0.88,0.94-1.54,1.24c-0.66,0.3-1.42,0.45-2.28,0.45C249.25,65.94,248.42,65.78,247.7,65.47z"/>
</g>
<g>
	<path class="st0" d="M103.58,14.68c2.11,1.13,3.74,2.7,4.88,4.72c1.14,2.02,1.71,4.34,1.71,6.94c0,2.58-0.58,4.88-1.73,6.91
		c-1.15,2.02-2.78,3.61-4.9,4.76c-2.11,1.15-4.56,1.73-7.34,1.73H85.61V12.99H96.2C99.01,12.99,101.47,13.56,103.58,14.68z
		 M100.75,31.4c1.24-1.19,1.86-2.87,1.86-5.05c0-2.2-0.62-3.9-1.86-5.1c-1.24-1.2-2.95-1.8-5.12-1.8h-2.58v13.74h2.58
		C97.8,33.18,99.51,32.59,100.75,31.4z"/>
	<path class="st0" d="M135.62,30.6h-14.08c0.08,1.16,0.4,2.03,0.97,2.6c0.57,0.57,1.3,0.85,2.18,0.85c1.24,0,2.13-0.56,2.66-1.67
		h7.93c-0.33,1.47-0.97,2.78-1.92,3.93c-0.95,1.15-2.14,2.06-3.59,2.71s-3.04,0.99-4.78,0.99c-2.1,0-3.97-0.44-5.6-1.33
		c-1.63-0.88-2.91-2.15-3.83-3.79c-0.92-1.64-1.39-3.58-1.39-5.81c0-2.23,0.46-4.16,1.37-5.79s2.18-2.89,3.81-3.78
		c1.63-0.89,3.51-1.33,5.64-1.33c2.1,0,3.96,0.43,5.58,1.29c1.62,0.86,2.88,2.09,3.79,3.7s1.37,3.5,1.37,5.67
		C135.74,29.44,135.7,30.02,135.62,30.6z M128.15,27c0-0.91-0.3-1.63-0.91-2.14c-0.61-0.52-1.37-0.78-2.28-0.78
		c-0.91,0-1.66,0.25-2.24,0.74c-0.58,0.49-0.96,1.22-1.14,2.18H128.15z"/>
	<path class="st0" d="M150.88,32.73l3.98-14.27h7.93l-7.32,21.29h-9.26l-7.32-21.29h7.93L150.88,32.73z"/>
	<path class="st0" d="M187.42,30.6h-14.08c0.08,1.16,0.4,2.03,0.97,2.6s1.3,0.85,2.18,0.85c1.24,0,2.13-0.56,2.66-1.67h7.93
		c-0.33,1.47-0.97,2.78-1.92,3.93c-0.95,1.15-2.14,2.06-3.59,2.71c-1.44,0.66-3.04,0.99-4.78,0.99c-2.1,0-3.97-0.44-5.6-1.33
		c-1.63-0.88-2.91-2.15-3.83-3.79c-0.92-1.64-1.38-3.58-1.38-5.81c0-2.23,0.46-4.16,1.37-5.79c0.91-1.63,2.18-2.89,3.81-3.78
		s3.51-1.33,5.63-1.33c2.1,0,3.96,0.43,5.58,1.29c1.62,0.86,2.88,2.09,3.79,3.7s1.37,3.5,1.37,5.67
		C187.53,29.44,187.5,30.02,187.42,30.6z M179.95,27c0-0.91-0.3-1.63-0.91-2.14c-0.61-0.52-1.37-0.78-2.28-0.78
		c-0.91,0-1.66,0.25-2.24,0.74c-0.58,0.49-0.96,1.22-1.14,2.18H179.95z"/>
	<path class="st0" d="M199.91,11.67v28.08h-7.44V11.67H199.91z"/>
	<path class="st0" d="M210.25,38.68c-1.68-0.88-3-2.15-3.97-3.79c-0.96-1.64-1.44-3.58-1.44-5.81c0-2.2,0.49-4.12,1.46-5.77
		c0.97-1.64,2.3-2.91,3.98-3.79c1.68-0.89,3.59-1.33,5.71-1.33s4.03,0.44,5.71,1.33c1.68,0.89,3.01,2.15,3.98,3.79
		c0.97,1.64,1.46,3.57,1.46,5.77s-0.49,4.13-1.46,5.79c-0.97,1.66-2.31,2.93-4,3.81c-1.69,0.89-3.6,1.33-5.73,1.33
		S211.93,39.57,210.25,38.68z M218.56,32.4c0.7-0.77,1.04-1.88,1.04-3.32s-0.35-2.54-1.04-3.3c-0.7-0.76-1.55-1.14-2.56-1.14
		c-1.01,0-1.86,0.38-2.54,1.14c-0.68,0.76-1.02,1.86-1.02,3.3c0,1.47,0.33,2.58,0.99,3.34c0.66,0.76,1.5,1.14,2.54,1.14
		C216.99,33.56,217.86,33.18,218.56,32.4z"/>
	<path class="st0" d="M241.99,19.07c1.06-0.58,2.31-0.87,3.76-0.87c1.69,0,3.23,0.44,4.61,1.33s2.47,2.15,3.26,3.79
		s1.2,3.57,1.2,5.77s-0.4,4.13-1.2,5.79s-1.88,2.93-3.26,3.81c-1.38,0.89-2.92,1.33-4.61,1.33c-1.44,0-2.69-0.29-3.74-0.87
		c-1.05-0.58-1.88-1.37-2.49-2.35v13.13h-7.44V18.46h7.44v2.96C240.1,20.43,240.93,19.65,241.99,19.07z M246.14,25.84
		c-0.75-0.77-1.66-1.16-2.75-1.16c-1.09,0-2.01,0.39-2.75,1.18s-1.12,1.86-1.12,3.23c0,1.39,0.37,2.48,1.12,3.26
		c0.75,0.78,1.66,1.18,2.75,1.18c1.09,0,2-0.4,2.75-1.2c0.75-0.8,1.12-1.88,1.12-3.24C247.26,27.69,246.89,26.61,246.14,25.84z"/>
	<path class="st0" d="M280.01,30.6h-14.08c0.08,1.16,0.4,2.03,0.97,2.6s1.3,0.85,2.18,0.85c1.24,0,2.13-0.56,2.66-1.67h7.93
		c-0.33,1.47-0.97,2.78-1.92,3.93c-0.95,1.15-2.14,2.06-3.59,2.71c-1.44,0.66-3.04,0.99-4.78,0.99c-2.1,0-3.97-0.44-5.6-1.33
		c-1.63-0.88-2.91-2.15-3.83-3.79c-0.92-1.64-1.38-3.58-1.38-5.81c0-2.23,0.46-4.16,1.37-5.79c0.91-1.63,2.18-2.89,3.81-3.78
		s3.51-1.33,5.63-1.33c2.1,0,3.96,0.43,5.58,1.29c1.62,0.86,2.88,2.09,3.79,3.7s1.37,3.5,1.37,5.67
		C280.12,29.44,280.09,30.02,280.01,30.6z M272.53,27c0-0.91-0.3-1.63-0.91-2.14c-0.61-0.52-1.37-0.78-2.28-0.78
		c-0.91,0-1.66,0.25-2.24,0.74c-0.58,0.49-0.96,1.22-1.14,2.18H272.53z"/>
	<path class="st0" d="M295.53,19.33c1.19-0.71,2.47-1.06,3.83-1.06v7.93h-2.09c-1.62,0-2.82,0.32-3.6,0.95
		c-0.79,0.63-1.18,1.73-1.18,3.3v9.3h-7.44V18.46h7.44v3.76C293.33,21,294.34,20.04,295.53,19.33z"/>
</g>
<path class="st0" d="M57.45,70.54H18.79c-6.33,0-11.47-5.13-11.47-11.47V20.42c0-6.33,5.13-11.47,11.47-11.47h38.65
	c6.33,0,11.47,5.13,11.47,11.47v38.65C68.91,65.41,63.78,70.54,57.45,70.54z"/>
<g>
	<g>
		<linearGradient id="SVGID_1_" gradientUnits="userSpaceOnUse" x1="19.0227" y1="34.7239" x2="40.0275" y2="34.7239">
			<stop  offset="0" style="stop-color:#8174B4"/>
			<stop  offset="1" style="stop-color:#273586"/>
		</linearGradient>
		<path class="st1" d="M40.03,45.83h-10.8l-10.2-11.1l10.2-11.1h10.8l-10.25,11.1L40.03,45.83z"/>
	</g>
	<g>
		<linearGradient id="SVGID_2_" gradientUnits="userSpaceOnUse" x1="37.6838" y1="45.2582" x2="58.6886" y2="45.2582">
			<stop  offset="0" style="stop-color:#8174B4"/>
			<stop  offset="1" style="stop-color:#273586"/>
		</linearGradient>
		<path class="st2" d="M37.68,34.15h10.8l10.2,11.1l-10.2,11.1h-10.8l10.25-11.1L37.68,34.15z"/>
	</g>
	<g>
		<defs>
			<path id="SVGID_3_" d="M40.03,45.83h-10.8l-10.2-11.1l10.2-11.1h10.8l-10.25,11.1L40.03,45.83z"/>
		</defs>
		<clipPath id="SVGID_4_">
			<use xlink:href="#SVGID_3_"  style="overflow:visible;"/>
		</clipPath>
		<polyline class="st3" points="36.88,19.65 24.13,34.72 35.43,47.84 		"/>
	</g>
	<g>
		<defs>
			<path id="SVGID_5_" d="M37.78,33.99h10.8l10.2,11.1l-10.2,11.1h-10.8l10.25-11.1L37.78,33.99z"/>
		</defs>
		<clipPath id="SVGID_6_">
			<use xlink:href="#SVGID_5_"  style="overflow:visible;"/>
		</clipPath>
		<polyline class="st4" points="40.93,60.17 53.69,45.09 42.38,31.97 		"/>
	</g>
</g>
</svg>
